<?xml version="1.0" encoding="UTF-8" standalone="no"?>
<!-- Created with Inkscape (http://www.inkscape.org/) -->

<svg
   width="89.751831mm"
   height="92.665878mm"
   viewBox="0 0 89.751831 92.665878"
   version="1.1"
   id="svg1"
   xml:space="preserve"
   xmlns="http://www.w3.org/2000/svg"
   xmlns:svg="http://www.w3.org/2000/svg"><defs
     id="defs1" /><path
     style="fill:none;fill-opacity:1;stroke:#000000;stroke-width:1.065;stroke-linecap:round;stroke-linejoin:round;stroke-dasharray:none;stroke-opacity:1"
     d="m 32.721836,77.220831 -2.799269,14.18888 -4.620451,0.16844"
     id="path10" /><path
     style="fill:none;fill-opacity:1;stroke:#000000;stroke-width:1.065;stroke-linecap:round;stroke-linejoin:round;stroke-dasharray:none;stroke-opacity:1"
     d="m 53.318523,77.776061 2.799269,14.18888 4.620451,0.16844"
     id="path10-0" /><g
     id="layer2"
     transform="translate(-27.171223,-38.913389)"><g
       id="g6"
       transform="matrix(0.45821538,0,0,0.45821538,35.111065,36.250214)"><path
         style="fill:#ffec9c;fill-opacity:1;stroke-width:0.264583"
         d="m 49.180476,172.89358 c 0,0 21.634916,12.63821 58.050114,1.49945 36.4152,-11.13877 -4.71256,-116.957065 -4.71256,-116.957065 0,0 -112.0302939,77.328755 -53.337554,115.457615 z"
         id="path4" /><path
         style="fill:#f9b1ff;fill-opacity:1;stroke:none;stroke-width:1;stroke-dasharray:none;stroke-opacity:1"
         d="m 30.111599,56.216791 c 0,0 -4.175411,18.004037 -13.409905,35.240381 -8.7928804,16.412068 -7.5627594,33.428188 -7.5627594,33.428188 0,0 0.513127,16.7354 9.4715254,25.70842 13.950231,13.97301 20.450819,17.97931 18.683776,15.93951 -31.1634954,-35.97387 -0.07899,-82.916724 -0.07899,-82.916724 0,0 1.745578,-17.51197 -6.270106,-27.677621 z"
         id="path1" /><path
         style="fill:#ff7474;fill-opacity:1;stroke:none;stroke-width:1;stroke-dasharray:none;stroke-opacity:1"
         d="m 120.47963,37.817608 c 0,0 86.18835,81.119232 -10.63672,136.947772 62.57353,-34.22674 6.64795,-106.747084 6.64795,-106.747084 0,0 11.58643,-16.14502 3.98877,-30.200688 z"
         id="path2" /><path
         style="fill:#ffa55c;fill-opacity:1;stroke:none;stroke-width:1.065;stroke-dasharray:none;stroke-opacity:1"
         d="m 69.31594,5.8120589 c 0,0 38.46453,15.1733551 46.69714,61.6916381 0.85654,4.8399 16.91957,15.203627 22.42522,45.730193 5.89027,32.65912 -3.4492,47.17572 -29.49406,61.15914 -6.41669,3.4451 37.13134,-41.47182 -23.991185,-97.892635 C 73.814291,66.218456 98.662435,78.042432 70.601183,122.55491 70.17277,112.70139 73.38588,108.41725 66.317041,98.349522 64.389179,127.91009 35.471224,137.121 49.394683,172.89358 34.247463,169.24423 -4.0366744,137.67122 45.538955,73.287288 m 0,0 C 58.605587,53.794444 62.086451,46.832714 68.99463,26.777577 72.424346,16.820763 68.244905,10.203304 69.31594,5.8120589"
         id="path3" /></g><ellipse
       style="fill:#000000;fill-opacity:1;stroke-width:0.0604042"
       id="path5"
       cx="59.465931"
       cy="88.117432"
       rx="2.404748"
       ry="3.2881248" /><ellipse
       style="fill:#000000;fill-opacity:1;stroke-width:0.0604042"
       id="path5-2"
       cx="78.655159"
       cy="84.591812"
       rx="2.404748"
       ry="3.2881248" /><g
       id="g9"
       transform="rotate(-19.470849,41.851025,74.846007)"><path
         style="fill:#000000;fill-opacity:1;stroke:#000000;stroke-width:1.065;stroke-linecap:round;stroke-linejoin:round;stroke-dasharray:none;stroke-opacity:1"
         d="M 45.788755,87.639686 29.27678,69.999403"
         id="path7" /><path
         style="fill:#000000;fill-opacity:1;stroke:#000000;stroke-width:1.065;stroke-linecap:round;stroke-linejoin:round;stroke-dasharray:none;stroke-opacity:1"
         d="m 27.157541,73.963629 6.632949,0.750899"
         id="path8" /><path
         style="fill:#000000;fill-opacity:1;stroke:#000000;stroke-width:1.065;stroke-linecap:round;stroke-linejoin:round;stroke-dasharray:none;stroke-opacity:1"
         d="m 34.272342,67.995797 -0.452621,6.659955"
         id="path8-0" /></g><g
       id="g10"
       transform="matrix(-0.96612593,-0.25807108,-0.25807108,0.96612593,174.67882,16.067826)"><path
         style="fill:#000000;fill-opacity:1;stroke:#000000;stroke-width:1.065;stroke-linecap:round;stroke-linejoin:round;stroke-dasharray:none;stroke-opacity:1"
         d="M 58.851213,88.968056 42.339238,71.327773"
         id="path7-8" /><path
         style="fill:#000000;fill-opacity:1;stroke:#000000;stroke-width:1.065;stroke-linecap:round;stroke-linejoin:round;stroke-dasharray:none;stroke-opacity:1"
         d="m 40.219999,75.291999 6.632949,0.750899"
         id="path8-4" /><path
         style="fill:#000000;fill-opacity:1;stroke:#000000;stroke-width:1.065;stroke-linecap:round;stroke-linejoin:round;stroke-dasharray:none;stroke-opacity:1"
         d="m 47.3348,69.324167 -0.452621,6.659955"
         id="path8-0-5" /></g><ellipse
       style="fill:none;stroke:#000000;stroke-width:1.313;stroke-linecap:round;stroke-linejoin:round"
       id="path11"
       cx="46.738415"
       cy="111.93086"
       rx="8.0050383"
       ry="5.1924567"
       transform="rotate(-13.0241)" /></g></svg>
